<svg xmlns="http://www.w3.org/2000/svg" viewBox="0 0 220 240" fill="none" role="img" aria-label="Zanate mexicano estilizado, estilo mexica">
  <g fill="#16305F">
    <!-- crest drop -->
    <path d="M52 26c-10-8-24-6-28 2 10-2 16 2 20 8 4 5 12 4 14-2 1-4-2-6-6-8z"/>
    <!-- head + open beak -->
    <path d="M96 22c-14 2-26 12-30 26l-26-8 22 16-4 6 28-2c-2 10-1 20 4 28l14-8c-4-8-5-16-2-24 3-10 12-18 24-19 16-2 30 8 33 24l14-4C168 30 134 16 96 22z"/>
    <!-- eye -->
    <circle cx="104" cy="52" r="13" fill="none" stroke="#16305F" stroke-width="7"/>
    <circle cx="107" cy="54" r="5"/>
    <!-- body with fret pattern -->
    <path d="M84 88c-16 10-26 28-26 46 0 26 18 46 44 50l10-14c-20-2-36-16-36-36 0-14 8-27 20-34 14-8 32-6 44 4l10-12c-18-14-46-16-66-4z"/>
    <rect x="86" y="104" width="14" height="14" transform="rotate(45 93 111)"/>
    <rect x="108" y="118" width="12" height="12" transform="rotate(45 114 124)"/>
    <path d="M74 132h16v8H82v8h-8z"/>
    <!-- spiral chest -->
    <path d="M118 142c-12 0-20 9-20 19 0 9 7 16 16 16 7 0 13-5 13-12 0-5-4-9-9-9-4 0-7 3-7 6h7c0 1-1 2-2 2-2 0-4-2-4-4 0-4 4-7 8-7 5 0 9 4 9 9 0 8-7 13-15 13l4 10c11-2 19-11 19-22 0-12-9-21-19-21z"/>
    <!-- wing feathers -->
    <g>
      <rect x="128" y="30" width="86" height="24" rx="12" transform="rotate(18 128 30)"/>
      <rect x="134" y="62" width="80" height="24" rx="12" transform="rotate(30 134 62)"/>
      <rect x="136" y="94" width="74" height="24" rx="12" transform="rotate(42 136 94)"/>
      <rect x="134" y="126" width="66" height="24" rx="12" transform="rotate(54 134 126)"/>
    </g>
    <!-- feather triangles (light cutouts drawn as white) -->
    <g fill="#fff">
      <path d="M196 56l12 8-14 6z" transform="rotate(6 196 56)"/>
      <path d="M188 96l12 8-14 6z" transform="rotate(16 188 96)"/>
      <path d="M176 134l12 8-14 6z" transform="rotate(26 176 134)"/>
    </g>
    <!-- tail fan -->
    <path d="M96 190l-14 38 12 6 14-40z"/>
    <path d="M112 192l0 42 14 0 2-42z" />
    <path d="M130 188l16 38-12 8-16-42z"/>
    <path d="M112 205l7 14-7 6-7-6z" fill="#fff"/>
    <!-- legs + claws -->
    <path d="M78 168l-26 14 4 7 26-13z"/>
    <circle cx="48" cy="186" r="7"/>
    <path d="M44 192l-12 14 5 4 10-12zM50 193l-2 17 7 1 2-15zM55 190l12 12-5 5-11-11z"/>
    <path d="M96 176l-22 20 5 6 23-19z"/>
    <circle cx="70" cy="200" r="7"/>
    <path d="M66 206l-12 13 5 5 10-12zM72 207l-1 16 7 1 1-14zM77 204l12 11-5 5-11-10z"/>
  </g>
</svg>
